<?xml version="1.0" standalone="no"?>
<!DOCTYPE svg PUBLIC "-//W3C//DTD SVG 20010904//EN"
 "http://www.w3.org/TR/2001/REC-SVG-20010904/DTD/svg10.dtd">
<svg version="1.0" xmlns="http://www.w3.org/2000/svg"
 width="1920.000000pt" height="947.000000pt" viewBox="0 0 1920.000000 947.000000"
 preserveAspectRatio="xMidYMid meet">

<g transform="translate(0.000000,947.000000) scale(0.100000,-0.100000)"
fill="#000000" stroke="none">
<path d="M6210 7222 c0 -247 4 -262 66 -262 26 0 34 4 34 18 0 9 -10 22 -22
27 -23 10 -23 13 -26 223 l-2 212 -25 0 -25 0 0 -218z"/>
<path d="M6360 7220 c0 -207 1 -221 20 -240 11 -11 33 -20 50 -20 23 0 30 4
30 20 0 11 -7 20 -15 20 -29 0 -35 39 -35 239 l0 201 -25 0 -25 0 0 -220z"/>
<path d="M12650 7200 l0 -240 25 0 25 0 0 114 c0 112 1 115 26 135 29 23 74
27 104 11 27 -14 40 -71 40 -172 0 -87 0 -88 25 -88 l25 0 0 104 c0 111 -8
147 -42 183 -36 38 -81 40 -160 8 -16 -7 -18 1 -18 89 0 96 0 96 -25 96 l-25
0 0 -240z"/>
<path d="M13000 7222 c0 -247 4 -262 66 -262 26 0 34 4 34 18 0 9 -10 22 -22
27 -23 10 -23 13 -26 223 l-2 212 -25 0 -25 0 0 -218z"/>
<path d="M13800 7135 l0 -305 25 0 25 0 0 305 0 305 -25 0 -25 0 0 -305z"/>
<path d="M5450 7185 l0 -225 30 0 30 0 0 105 0 105 115 0 115 0 0 -105 0 -105
30 0 30 0 -2 223 -3 222 -27 3 -28 3 0 -95 0 -96 -115 0 -115 0 0 95 0 95 -30
0 -30 0 0 -225z"/>
<path d="M9860 7380 c0 -25 4 -30 25 -30 21 0 25 5 25 30 0 25 -4 30 -25 30
-21 0 -25 -5 -25 -30z"/>
<path d="M10420 7175 c0 -222 -1 -236 -20 -255 -11 -11 -26 -20 -34 -20 -9 0
-12 -8 -8 -26 4 -24 8 -26 41 -20 70 11 71 17 71 302 l0 254 -25 0 -25 0 0
-235z"/>
<path d="M11770 7185 l0 -225 130 0 130 0 0 25 0 25 -100 0 -100 0 0 200 0
200 -30 0 -30 0 0 -225z"/>
<path d="M5960 7269 c-117 -47 -131 -219 -24 -290 20 -13 47 -19 86 -19 73 0
108 13 108 41 0 14 -5 19 -14 16 -92 -36 -196 7 -196 79 0 23 2 23 113 26
l112 3 -2 37 c-5 89 -96 142 -183 107z m111 -60 c38 -38 22 -54 -60 -57 -91
-4 -104 6 -63 47 37 38 91 42 123 10z"/>
<path d="M6573 7260 c-76 -39 -103 -139 -62 -225 48 -99 214 -101 266 -3 25
48 24 139 -3 174 -52 71 -128 91 -201 54z m138 -59 c24 -25 29 -37 29 -81 0
-62 -11 -85 -52 -106 -73 -38 -138 11 -138 103 0 47 4 59 29 84 22 21 39 29
66 29 27 0 44 -8 66 -29z"/>
<path d="M7228 7261 c-31 -17 -38 -18 -38 -6 0 9 -9 15 -25 15 l-25 0 0 -155
0 -155 30 0 30 0 0 119 c0 135 3 140 73 148 39 5 46 2 65 -22 20 -25 22 -40
22 -136 0 -109 0 -109 24 -109 24 0 24 1 28 116 3 108 5 117 27 135 31 25 85
25 111 -1 18 -18 20 -33 20 -135 l0 -115 31 0 31 0 -4 124 c-4 142 -15 168
-77 187 -51 15 -102 5 -131 -26 l-24 -25 -27 26 c-37 35 -93 41 -141 15z"/>
<path d="M8247 7261 c-32 -16 -39 -17 -44 -5 -3 8 -14 14 -24 14 -18 0 -19
-10 -19 -155 l0 -155 25 0 25 0 0 114 c0 112 1 115 26 135 34 27 94 28 125 2
22 -18 24 -28 27 -135 4 -115 4 -116 28 -116 24 0 24 1 24 105 0 129 -17 181
-66 201 -46 19 -83 18 -127 -5z"/>
<path d="M8563 7265 c-23 -10 -33 -21 -33 -36 0 -16 4 -19 18 -14 9 4 35 9 57
12 46 5 72 -10 77 -47 3 -23 -1 -25 -47 -31 -92 -11 -135 -46 -135 -109 0 -70
101 -108 162 -61 24 20 25 20 41 0 20 -23 63 -25 71 -3 8 21 8 21 -13 27 -16
4 -19 17 -23 103 -3 55 -11 111 -18 126 -21 45 -95 60 -157 33z m125 -186 c3
-30 -2 -41 -24 -58 -51 -40 -114 -22 -114 33 0 33 63 66 115 62 15 -1 21 -9
23 -37z"/>
<path d="M8907 7260 c-31 -17 -37 -17 -37 -5 0 8 -9 15 -20 15 -19 0 -20 -7
-20 -155 l0 -155 25 0 25 0 0 119 c0 129 3 136 58 147 45 9 77 -2 90 -31 7
-15 12 -72 12 -130 l0 -105 25 0 c25 0 25 0 25 94 0 101 12 151 40 166 30 16
76 12 101 -9 22 -18 24 -28 27 -135 4 -115 4 -116 28 -116 24 0 24 1 24 103 0
158 -18 197 -98 213 -42 8 -74 -1 -111 -31 -29 -25 -30 -25 -40 -6 -11 20 -59
41 -95 41 -12 0 -38 -9 -59 -20z"/>
<path d="M9452 7260 c-74 -34 -102 -130 -62 -217 26 -58 69 -83 142 -83 71 0
111 14 106 38 -2 9 -11 15 -19 13 -8 -2 -40 -4 -72 -5 -54 -1 -61 2 -88 32
-16 18 -29 43 -29 57 l0 25 110 0 110 0 0 35 c0 50 -23 89 -64 109 -45 21 -81
20 -134 -4z m128 -54 c38 -42 22 -56 -63 -56 -41 0 -77 3 -80 6 -8 8 11 45 32
61 28 22 85 16 111 -11z"/>
<path d="M10045 7271 c-34 -14 -59 -50 -59 -86 0 -44 15 -61 76 -81 65 -21 92
-47 78 -74 -15 -27 -69 -35 -115 -16 -47 20 -45 21 -45 -9 0 -33 27 -45 102
-45 71 0 102 18 114 67 15 57 -6 80 -118 127 -30 12 -38 21 -38 41 0 38 42 52
98 32 42 -14 42 -14 42 9 0 17 -8 28 -26 34 -30 12 -81 12 -109 1z"/>
<path d="M10622 7260 c-74 -34 -102 -130 -62 -217 26 -58 69 -83 142 -83 71 0
111 14 106 38 -2 9 -11 15 -19 13 -8 -2 -40 -4 -72 -5 -54 -1 -61 2 -88 32
-16 18 -29 43 -29 57 l0 25 110 0 110 0 0 35 c0 50 -23 89 -64 109 -45 21 -81
20 -134 -4z m128 -54 c38 -42 22 -56 -63 -56 -41 0 -77 3 -80 6 -8 8 11 45 32
61 28 22 85 16 111 -11z"/>
<path d="M10976 7255 c-44 -30 -46 -30 -46 -5 0 13 -7 20 -20 20 -19 0 -20 -7
-20 -155 l0 -155 25 0 25 0 0 108 c0 121 7 136 68 148 27 6 32 11 32 35 0 36
-16 37 -64 4z"/>
<path d="M11176 7250 l-34 -30 -6 25 c-4 16 -13 25 -26 25 -19 0 -20 -7 -20
-155 l0 -155 30 0 30 0 0 114 c0 124 3 131 58 142 18 4 32 12 32 19 0 8 3 20
6 29 11 27 -32 19 -70 -14z"/>
<path d="M12123 7266 c-23 -10 -33 -22 -33 -37 0 -16 4 -19 18 -13 9 4 35 9
58 12 47 4 74 -15 74 -54 0 -21 -5 -24 -37 -24 -47 0 -118 -32 -132 -58 -19
-35 -13 -86 12 -110 31 -29 104 -30 139 -3 24 20 25 20 41 0 20 -23 63 -25 71
-3 8 21 8 21 -14 27 -17 4 -20 14 -20 74 -1 92 -14 151 -38 175 -26 26 -97 33
-139 14z m117 -190 c0 -52 -24 -76 -75 -76 -78 0 -74 91 5 110 67 16 70 14 70
-34z"/>
<path d="M12435 7271 c-34 -14 -59 -50 -59 -86 0 -44 15 -61 76 -81 65 -21 92
-47 78 -74 -15 -27 -69 -35 -115 -16 -47 20 -45 21 -45 -9 0 -33 27 -45 102
-45 71 0 102 18 114 67 15 57 -6 80 -118 127 -30 12 -38 21 -38 41 0 38 42 52
98 32 42 -14 42 -14 42 9 0 17 -8 28 -26 34 -30 12 -81 12 -109 1z"/>
<path d="M13211 7262 c-52 -26 -74 -63 -78 -129 -7 -108 52 -173 158 -173 77
0 109 12 102 40 -4 13 -11 19 -22 16 -50 -15 -72 -16 -110 -6 -43 11 -65 35
-76 83 l-7 27 117 0 118 0 -6 45 c-5 52 -27 82 -74 101 -43 19 -81 18 -122 -4z
m117 -49 c12 -10 22 -27 24 -38 3 -18 -3 -20 -79 -23 -93 -3 -105 7 -58 53 29
30 83 33 113 8z"/>
<path d="M5150 7242 c0 -24 8 -30 85 -62 47 -19 85 -37 85 -40 0 -3 -37 -21
-83 -41 -70 -30 -82 -39 -85 -62 l-3 -26 110 51 c101 47 111 54 111 78 0 24
-10 31 -110 78 l-110 51 0 -27z"/>
<path d="M7670 7263 c0 -4 27 -71 61 -149 l61 -141 -35 -82 -36 -82 31 3 c31
3 33 6 120 218 48 118 90 221 93 228 3 8 -6 12 -25 12 -27 0 -31 -5 -71 -110
-23 -60 -45 -110 -48 -110 -4 0 -27 48 -51 108 -41 96 -48 107 -73 110 -15 2
-27 0 -27 -5z"/>
<path d="M9860 7115 l0 -155 25 0 25 0 0 155 0 155 -25 0 -25 0 0 -155z"/>
<path d="M11269 7248 c5 -13 33 -77 62 -143 29 -66 52 -127 51 -135 0 -8 -14
-46 -31 -83 -17 -38 -31 -71 -31 -73 0 -2 13 -4 28 -4 28 0 31 6 120 225 51
123 92 227 92 230 0 3 -13 5 -28 5 -26 0 -30 -6 -66 -103 -20 -56 -41 -108
-45 -115 -4 -7 -27 35 -55 103 -46 108 -50 115 -77 115 -25 0 -28 -2 -20 -22z"/>
<path d="M13449 7248 c5 -13 33 -77 62 -143 29 -66 52 -127 51 -135 0 -8 -14
-46 -31 -83 -17 -38 -31 -71 -31 -73 0 -2 13 -4 28 -4 28 0 31 6 120 225 51
123 92 227 92 230 0 3 -13 5 -28 5 -26 0 -30 -6 -66 -103 -20 -56 -41 -108
-45 -115 -4 -7 -27 35 -55 103 -46 108 -50 115 -77 115 -25 0 -28 -2 -20 -22z"/>
<path d="M6860 6995 c0 -19 5 -35 11 -35 6 0 9 -6 6 -12 -17 -48 -18 -58 -2
-58 20 0 45 58 45 105 0 32 -2 35 -30 35 -28 0 -30 -3 -30 -35z"/>
<path d="M6977 6633 c-11 -10 -8 -161 3 -168 6 -4 10 27 10 84 0 91 -1 97 -13
84z"/>
<path d="M7426 6631 c-4 -7 -5 -15 -2 -18 9 -9 19 4 14 18 -4 11 -6 11 -12 0z"/>
<path d="M7842 6568 c-2 -73 -1 -79 24 -94 33 -22 72 -10 93 28 14 25 14 29
-5 55 -23 30 -60 41 -77 24 -19 -19 -26 -12 -30 27 -2 20 -4 2 -5 -40z m96
-10 c7 -7 12 -21 12 -33 0 -29 -19 -45 -52 -45 -36 0 -56 36 -39 69 13 23 59
29 79 9z"/>
<path d="M8176 6631 c-4 -7 -5 -15 -2 -18 9 -9 19 4 14 18 -4 11 -6 11 -12 0z"/>
<path d="M8238 6634 c-12 -11 -10 -132 2 -155 6 -10 17 -19 25 -19 19 0 19 16
0 23 -10 5 -15 27 -17 82 -2 42 -6 73 -10 69z"/>
<path d="M8410 6606 c0 -40 -2 -41 -30 -24 -33 21 -74 -8 -78 -54 -3 -30 1
-40 23 -54 33 -22 74 -10 92 26 15 30 17 126 3 135 -6 4 -10 -8 -10 -29z m-9
-57 c18 -34 -3 -69 -41 -69 -22 0 -33 6 -41 24 -16 35 3 66 41 66 20 0 33 -7
41 -21z"/>
<path d="M8476 6631 c-4 -5 -2 -12 3 -15 5 -4 12 -2 15 3 4 5 2 12 -3 15 -5 4
-12 2 -15 -3z"/>
<path d="M9530 6562 c0 -59 4 -83 15 -92 9 -7 19 -9 23 -5 4 4 1 10 -5 12 -9
3 -13 28 -13 78 0 41 -4 77 -10 80 -6 4 -10 -23 -10 -73z"/>
<path d="M10028 6610 c-14 -16 -22 -32 -17 -36 5 -3 9 -27 9 -54 0 -27 5 -52
10 -55 6 -4 10 15 10 49 0 43 3 56 15 56 8 0 15 5 15 10 0 6 -7 10 -15 10 -22
0 -18 21 5 27 22 6 27 23 7 23 -7 0 -24 -13 -39 -30z"/>
<path d="M10115 6608 c-18 -20 -24 -33 -17 -36 7 -2 12 -25 12 -58 0 -30 5
-54 10 -54 6 0 10 25 10 55 0 42 3 55 15 55 8 0 15 5 15 10 0 6 -7 10 -15 10
-22 0 -18 21 5 27 22 6 27 23 7 23 -8 0 -26 -14 -42 -32z"/>
<path d="M10576 6631 c-4 -5 -2 -12 3 -15 5 -4 12 -2 15 3 4 5 2 12 -3 15 -5
4 -12 2 -15 -3z"/>
<path d="M11312 6568 c-2 -73 -1 -79 24 -94 33 -22 72 -10 93 28 14 25 14 29
-5 55 -23 30 -60 41 -77 24 -19 -19 -26 -12 -30 27 -2 20 -4 2 -5 -40z m96
-10 c7 -7 12 -21 12 -33 0 -29 -19 -45 -52 -45 -36 0 -56 36 -39 69 13 23 59
29 79 9z"/>
<path d="M9070 6620 c0 -5 5 -10 10 -10 6 0 10 5 10 10 0 6 -4 10 -10 10 -5 0
-10 -4 -10 -10z"/>
<path d="M10480 6611 c0 -10 -6 -22 -12 -25 -10 -5 -10 -7 0 -12 6 -3 12 -23
12 -44 0 -36 20 -70 41 -70 15 0 10 17 -6 24 -10 3 -15 19 -15 46 0 29 4 40
15 40 8 0 15 5 15 10 0 6 -7 10 -15 10 -8 0 -15 6 -15 14 0 8 -4 18 -10 21 -5
3 -10 -3 -10 -14z"/>
<path d="M11610 6620 c0 -5 5 -10 10 -10 6 0 10 5 10 10 0 6 -4 10 -10 10 -5
0 -10 -4 -10 -10z"/>
<path d="M11685 6613 c-4 -13 -12 -23 -17 -23 -7 0 -7 -4 -1 -12 6 -7 13 -33
16 -57 5 -42 19 -61 45 -61 20 0 14 17 -8 23 -16 4 -20 14 -20 46 0 30 4 41
15 41 8 0 15 5 15 10 0 6 -6 10 -14 10 -8 0 -17 10 -19 23 l-4 22 -8 -22z"/>
<path d="M7127 6572 c-10 -10 -17 -33 -17 -50 0 -39 37 -67 75 -58 35 9 31 23
-5 18 -29 -4 -60 11 -60 29 0 5 22 9 48 9 57 0 65 5 50 34 -21 40 -63 49 -91
18z m72 -15 c15 -19 4 -27 -34 -27 -17 0 -35 3 -38 7 -11 11 14 33 38 33 12 0
28 -6 34 -13z"/>
<path d="M7260 6521 c0 -73 17 -74 22 -1 3 41 5 45 32 48 35 4 46 -10 46 -65
0 -24 5 -43 10 -43 15 0 12 84 -4 106 -11 14 -27 19 -60 19 l-46 0 0 -64z"/>
<path d="M7428 6584 c-5 -4 -8 -41 -8 -82 0 -65 -2 -74 -20 -79 -11 -3 -20 -9
-20 -14 0 -16 26 -10 44 10 13 15 16 34 14 96 -2 42 -6 73 -10 69z"/>
<path d="M7502 6574 c-46 -32 -18 -114 39 -114 29 0 62 34 62 65 0 31 -33 65
-62 65 -9 0 -27 -7 -39 -16z m79 -25 c18 -34 -3 -69 -41 -69 -22 0 -33 6 -41
24 -16 35 3 66 41 66 20 0 33 -7 41 -21z"/>
<path d="M7620 6585 c0 -3 12 -29 26 -57 23 -45 25 -56 15 -87 -5 -19 -8 -37
-6 -39 7 -7 86 171 82 182 -3 6 -16 -14 -29 -44 l-25 -55 -27 53 c-23 46 -36
63 -36 47z"/>
<path d="M8012 6538 c-2 -66 10 -78 71 -75 l37 2 -2 65 c-1 53 -2 57 -5 20 -5
-52 -17 -70 -48 -70 -31 0 -43 18 -48 70 -3 42 -4 41 -5 -12z"/>
<path d="M8170 6525 c0 -37 4 -65 10 -65 6 0 10 28 10 65 0 37 -4 65 -10 65
-6 0 -10 -28 -10 -65z"/>
<path d="M8483 6525 c0 -38 2 -53 4 -32 2 20 2 52 0 70 -2 17 -4 1 -4 -38z"/>
<path d="M8540 6525 c0 -78 18 -88 22 -12 l3 52 35 0 c34 0 35 -1 38 -45 2
-25 8 -49 13 -55 7 -7 9 8 7 45 -3 47 -7 56 -30 70 -23 12 -31 13 -48 2 -12
-7 -20 -8 -20 -2 0 5 -4 10 -10 10 -6 0 -10 -28 -10 -65z"/>
<path d="M8722 6574 c-33 -23 -30 -78 4 -101 21 -13 32 -15 55 -6 31 12 36 5
19 -28 -12 -22 -59 -26 -78 -7 -9 9 -12 9 -12 0 0 -22 47 -37 75 -24 50 23 62
116 20 157 -28 29 -51 31 -83 9z m76 -16 c7 -7 12 -21 12 -33 0 -29 -19 -45
-52 -45 -36 0 -56 36 -39 69 13 23 59 29 79 9z"/>
<path d="M8953 6583 c-7 -2 -13 -16 -13 -29 0 -19 6 -26 30 -30 38 -8 59 -31
36 -40 -9 -4 -31 -4 -49 0 -30 5 -31 5 -13 -9 23 -18 40 -19 67 -5 34 19 24
48 -21 61 -50 15 -46 34 6 33 35 -2 36 0 19 12 -19 14 -40 17 -62 7z"/>
<path d="M9070 6525 c0 -37 4 -65 10 -65 6 0 10 28 10 65 0 37 -4 65 -10 65
-6 0 -10 -28 -10 -65z"/>
<path d="M9142 6520 c1 -65 1 -65 7 -16 6 51 26 74 55 63 12 -5 16 -19 16 -59
0 -63 17 -54 22 12 3 40 6 45 28 45 23 0 25 -4 28 -52 4 -67 22 -70 22 -4 0
52 -17 81 -49 81 -9 0 -22 -5 -29 -12 -8 -8 -15 -8 -25 0 -7 6 -28 10 -45 9
l-32 -2 2 -65z"/>
<path d="M9389 6571 c-19 -15 -24 -30 -27 -85 -3 -42 0 -72 7 -79 8 -8 11 0
11 30 l0 41 29 -11 c43 -16 81 11 81 58 0 57 -56 83 -101 46z m82 -22 c17 -33
-3 -69 -39 -69 -33 0 -52 16 -52 45 0 29 19 45 52 45 18 0 31 -7 39 -21z"/>
<path d="M9612 6574 c-15 -10 -22 -25 -22 -49 0 -54 53 -82 96 -51 17 13 15
14 -23 9 -35 -5 -43 -2 -52 16 -11 20 -10 21 44 21 54 0 56 1 50 23 -14 45
-54 59 -93 31z m76 -26 c3 -15 -4 -18 -37 -18 -39 0 -53 14 -34 34 14 14 68 1
71 -16z"/>
<path d="M9887 6578 c-57 -45 -1 -138 67 -112 27 10 18 21 -14 16 -29 -4 -60
11 -60 29 0 5 23 9 50 9 43 0 50 3 50 19 0 22 -35 51 -60 51 -9 0 -24 -6 -33
-12z m71 -30 c3 -15 -4 -18 -37 -18 -43 0 -50 7 -29 28 18 18 62 11 66 -10z"/>
<path d="M10207 6578 c-57 -45 -1 -138 67 -112 27 10 18 21 -14 16 -29 -4 -60
11 -60 29 0 5 23 9 50 9 43 0 50 3 50 19 0 22 -35 51 -60 51 -9 0 -24 -6 -33
-12z m71 -30 c3 -15 -4 -18 -37 -18 -43 0 -50 7 -29 28 18 18 62 11 66 -10z"/>
<path d="M10352 6574 c-32 -22 -30 -78 3 -100 16 -10 34 -14 50 -10 37 9 30
23 -10 18 -30 -4 -36 0 -47 23 -17 38 0 60 46 59 37 -1 48 9 20 20 -24 9 -38
7 -62 -10z"/>
<path d="M10583 6525 c0 -38 2 -53 4 -32 2 20 2 52 0 70 -2 17 -4 1 -4 -38z"/>
<path d="M10647 6533 c14 -32 29 -62 34 -67 4 -5 19 17 33 49 34 76 32 94 -2
27 l-28 -53 -24 50 c-13 28 -27 51 -31 51 -4 0 4 -26 18 -57z"/>
<path d="M10787 6578 c-57 -45 -1 -138 67 -112 27 10 18 21 -14 16 -29 -4 -60
11 -60 29 0 5 23 9 50 9 43 0 50 3 50 19 0 22 -35 51 -60 51 -9 0 -24 -6 -33
-12z m71 -30 c3 -15 -4 -18 -37 -18 -43 0 -50 7 -29 28 18 18 62 11 66 -10z"/>
<path d="M10970 6583 c0 -22 43 -122 50 -118 4 3 11 20 14 40 10 50 22 51 36
0 7 -25 16 -45 20 -45 10 0 45 119 37 126 -3 4 -11 -14 -18 -40 -6 -25 -15
-46 -19 -46 -4 0 -13 20 -19 45 -10 41 -30 54 -31 22 -1 -7 -7 -25 -14 -42
l-13 -30 -13 40 c-13 41 -30 68 -30 48z"/>
<path d="M11177 6578 c-57 -45 -1 -138 67 -112 27 10 18 21 -14 16 -29 -4 -60
11 -60 29 0 5 23 9 50 9 43 0 50 3 50 19 0 22 -35 51 -60 51 -9 0 -24 -6 -33
-12z m71 -30 c3 -15 -4 -18 -37 -18 -43 0 -50 7 -29 28 18 18 62 11 66 -10z"/>
<path d="M11493 6583 c-7 -2 -13 -16 -13 -29 0 -19 6 -26 30 -30 38 -8 59 -31
36 -40 -9 -4 -31 -4 -49 0 -30 5 -31 5 -13 -9 23 -18 40 -19 67 -5 34 19 24
48 -21 61 -50 15 -46 34 6 33 35 -2 36 0 19 12 -19 14 -40 17 -62 7z"/>
<path d="M11610 6525 c0 -37 4 -65 10 -65 6 0 10 28 10 65 0 37 -4 65 -10 65
-6 0 -10 -28 -10 -65z"/>
<path d="M11787 6572 c-10 -10 -17 -33 -17 -50 0 -39 37 -67 75 -58 35 9 31
23 -5 18 -29 -4 -60 11 -60 29 0 5 22 9 48 9 57 0 65 5 50 34 -21 40 -63 49
-91 18z m72 -15 c15 -19 4 -27 -34 -27 -17 0 -35 3 -38 7 -11 11 14 33 38 33
12 0 28 -6 34 -13z"/>
<path d="M11930 6575 c-18 -22 -6 -42 35 -55 45 -15 40 -35 -9 -34 -41 1 -49
-12 -12 -22 31 -8 62 2 70 23 9 21 -9 39 -44 47 -19 3 -30 12 -30 22 0 13 7
16 35 11 35 -6 48 6 19 17 -26 10 -51 7 -64 -9z"/>
<path d="M9742 6449 c1 -20 4 -26 9 -17 12 18 11 48 0 48 -5 0 -9 -14 -9 -31z"/>
<path d="M12044 6450 c1 -27 2 -28 14 -13 13 19 12 35 -5 40 -6 2 -10 -10 -9
-27z"/>
<path d="M5580 6190 c0 -58 4 -89 10 -85 6 3 10 42 10 85 0 43 -4 82 -10 85
-6 4 -10 -27 -10 -85z"/>
<path d="M7100 6202 c0 -59 4 -83 15 -92 9 -7 19 -9 23 -5 4 4 1 10 -5 12 -9
3 -13 28 -13 78 0 41 -4 77 -10 80 -6 4 -10 -23 -10 -73z"/>
<path d="M7770 6190 c0 -53 4 -90 10 -90 6 0 10 37 10 90 0 53 -4 90 -10 90
-6 0 -10 -37 -10 -90z"/>
<path d="M7820 6270 c0 -5 16 -10 35 -10 l34 0 4 -82 3 -83 2 83 2 82 29 0
c17 0 33 5 36 10 4 6 -22 10 -69 10 -44 0 -76 -4 -76 -10z"/>
<path d="M8070 6189 c0 -57 4 -88 10 -84 6 3 10 17 10 31 0 18 5 24 21 24 51
0 88 45 68 83 -16 31 -28 37 -71 37 l-38 0 0 -91z m94 49 c16 -26 -4 -52 -43
-56 -30 -3 -31 -2 -31 38 0 40 1 41 31 38 18 -2 37 -11 43 -20z"/>
<path d="M8502 6268 c-7 -7 -12 -18 -12 -25 0 -7 -8 -13 -17 -13 -13 0 -14 -3
-5 -12 7 -7 12 -33 12 -59 0 -26 5 -51 10 -54 6 -4 10 15 10 48 0 48 3 56 23
62 l22 8 -22 4 c-28 5 -30 23 -3 30 11 3 20 9 20 14 0 13 -24 11 -38 -3z"/>
<path d="M8976 6271 c-4 -7 -5 -15 -2 -18 9 -9 19 4 14 18 -4 11 -6 11 -12 0z"/>
<path d="M9520 6209 c0 -39 5 -79 10 -90 11 -20 40 -27 40 -9 0 6 -7 10 -15
10 -12 0 -15 16 -15 80 0 47 -4 80 -10 80 -6 0 -10 -30 -10 -71z"/>
<path d="M7015 6253 c-4 -13 -12 -23 -17 -23 -7 0 -7 -4 -1 -12 6 -7 13 -33
16 -57 5 -42 19 -61 45 -61 20 0 14 17 -8 23 -16 4 -20 14 -20 46 0 30 4 41
15 41 8 0 15 5 15 10 0 6 -6 10 -14 10 -8 0 -17 10 -19 23 l-4 22 -8 -22z"/>
<path d="M9841 6253 c0 -15 -8 -23 -18 -23 -17 -1 -17 -1 0 -14 11 -9 17 -27
17 -53 0 -40 14 -63 37 -63 20 0 15 17 -7 23 -16 4 -20 14 -20 46 0 30 4 41
15 41 8 0 15 5 15 10 0 6 -6 10 -14 10 -8 0 -17 10 -19 23 l-4 22 -2 -22z"/>
<path d="M5730 6210 c-50 -50 11 -138 70 -100 9 5 19 5 27 -2 10 -8 13 -1 13
36 0 53 -25 86 -65 86 -14 0 -34 -9 -45 -20z m78 -12 c7 -7 12 -21 12 -33 0
-12 -5 -26 -12 -33 -7 -7 -21 -12 -33 -12 -12 0 -26 5 -33 12 -7 7 -12 21 -12
33 0 12 5 26 12 33 7 7 21 12 33 12 12 0 26 -5 33 -12z"/>
<path d="M5880 6161 c0 -73 17 -74 22 -1 3 40 6 45 28 45 23 0 25 -4 28 -52 2
-29 7 -53 12 -53 5 0 10 24 12 53 3 48 5 52 28 52 22 0 25 -5 28 -45 5 -65 22
-75 22 -13 0 59 -20 89 -54 78 -12 -4 -25 -6 -31 -5 -5 0 -29 2 -52 4 l-43 3
0 -66z"/>
<path d="M6190 6210 c-11 -11 -20 -31 -20 -45 0 -51 70 -86 100 -50 11 13 8
14 -19 9 -37 -8 -61 9 -61 41 0 33 24 49 63 41 30 -5 31 -5 13 9 -27 20 -52
19 -76 -5z"/>
<path d="M6321 6183 c-1 -66 15 -84 72 -79 l42 4 3 52 c2 29 -2 58 -7 63 -8 8
-11 -2 -11 -34 0 -50 -13 -69 -46 -69 -28 0 -37 13 -45 70 l-6 45 -2 -52z"/>
<path d="M6480 6165 c0 -78 18 -88 22 -12 3 48 5 52 31 55 15 2 27 8 27 13 0
13 -34 11 -48 -3 -9 -9 -12 -9 -12 0 0 7 -4 12 -10 12 -6 0 -10 -28 -10 -65z"/>
<path d="M6597 6223 c-11 -10 -8 -111 2 -118 6 -3 11 17 13 47 3 49 5 53 31
56 15 2 27 8 27 13 0 13 -37 11 -46 -2 -5 -8 -8 -8 -13 0 -4 6 -10 8 -14 4z"/>
<path d="M6710 6210 c-51 -51 5 -130 74 -104 23 9 20 23 -4 17 -29 -8 -70 5
-70 22 0 11 13 15 50 15 43 0 50 3 50 19 0 22 -35 51 -62 51 -10 0 -27 -9 -38
-20z m78 -22 c3 -15 -4 -18 -37 -18 -39 0 -53 14 -34 34 14 14 68 1 71 -16z"/>
<path d="M6847 6223 c-11 -10 -8 -111 3 -118 6 -4 10 11 10 37 0 49 13 68 46
68 28 0 37 -13 45 -70 l6 -45 2 51 c1 38 -4 55 -17 67 -21 19 -58 22 -68 6 -5
-8 -8 -8 -13 0 -4 6 -10 8 -14 4z"/>
<path d="M7160 6220 c0 -6 12 -34 26 -61 22 -45 24 -55 13 -80 -6 -17 -10 -32
-7 -34 3 -3 24 36 47 86 45 99 49 134 5 48 l-27 -54 -23 53 c-22 49 -34 64
-34 42z"/>
<path d="M7392 6214 c-33 -23 -30 -78 4 -101 21 -13 32 -15 55 -6 18 7 29 8
29 2 0 -6 5 -7 10 -4 20 12 11 75 -15 100 -28 29 -51 31 -83 9z m76 -16 c7 -7
12 -21 12 -33 0 -29 -19 -45 -52 -45 -36 0 -56 36 -39 69 13 23 59 29 79 9z"/>
<path d="M7543 6165 c0 -49 2 -57 4 -25 5 52 17 70 47 70 33 0 46 -19 46 -68
0 -26 4 -41 10 -37 13 8 13 56 0 89 -11 29 -49 43 -78 27 -15 -8 -22 -8 -25 2
-3 6 -5 -19 -4 -58z"/>
<path d="M8217 6223 c-11 -10 -8 -111 2 -118 6 -3 11 17 13 47 3 49 5 53 31
56 15 2 27 8 27 13 0 13 -37 11 -46 -2 -5 -8 -8 -8 -13 0 -4 6 -10 8 -14 4z"/>
<path d="M8330 6210 c-11 -11 -20 -31 -20 -45 0 -14 9 -34 20 -45 11 -11 31
-20 45 -20 14 0 34 9 45 20 11 11 20 31 20 45 0 14 -9 34 -20 45 -11 11 -31
20 -45 20 -14 0 -34 -9 -45 -20z m78 -12 c7 -7 12 -21 12 -33 0 -12 -5 -26
-12 -33 -7 -7 -21 -12 -33 -12 -12 0 -26 5 -33 12 -7 7 -12 21 -12 33 0 12 5
26 12 33 7 7 21 12 33 12 12 0 26 -5 33 -12z"/>
<path d="M8577 6212 c-10 -10 -17 -33 -17 -50 0 -39 37 -67 75 -58 35 9 31 23
-5 18 -29 -4 -60 11 -60 29 0 5 22 9 48 9 57 0 65 5 50 34 -21 40 -63 49 -91
18z m72 -15 c15 -19 4 -27 -34 -27 -17 0 -35 3 -38 7 -11 11 14 33 38 33 12 0
28 -6 34 -13z"/>
<path d="M8723 6223 c-7 -2 -13 -13 -13 -23 0 -22 16 -35 53 -44 43 -10 27
-31 -23 -30 -38 1 -41 0 -25 -13 36 -26 85 -10 85 27 0 10 -16 23 -41 33 -50
20 -44 42 10 34 33 -6 34 -5 17 8 -20 15 -40 18 -63 8z"/>
<path d="M8853 6223 c-7 -2 -13 -13 -13 -23 0 -22 16 -35 53 -44 43 -10 27
-31 -23 -30 -38 1 -41 0 -25 -13 36 -26 85 -10 85 27 0 10 -16 23 -41 33 -50
20 -44 42 10 34 33 -6 34 -5 17 8 -20 15 -40 18 -63 8z"/>
<path d="M8970 6165 c0 -37 4 -65 10 -65 6 0 10 28 10 65 0 37 -4 65 -10 65
-6 0 -10 -28 -10 -65z"/>
<path d="M9051 6204 c-12 -15 -21 -32 -21 -39 0 -24 41 -65 66 -65 31 0 64 33
64 65 0 32 -33 65 -64 65 -15 0 -33 -11 -45 -26z m88 -16 c12 -34 -2 -63 -33
-66 -33 -4 -56 13 -56 42 0 30 18 46 52 46 21 0 31 -6 37 -22z"/>
<path d="M9200 6165 c0 -78 18 -88 22 -12 l3 52 35 0 c34 0 35 -1 38 -45 2
-25 8 -49 13 -55 7 -7 9 8 7 45 -3 47 -7 56 -30 70 -23 12 -31 13 -48 2 -12
-7 -20 -8 -20 -2 0 5 -4 10 -10 10 -6 0 -10 -28 -10 -65z"/>
<path d="M9382 6214 c-33 -23 -30 -78 4 -101 21 -13 32 -15 55 -6 18 7 29 8
29 2 0 -6 5 -7 10 -4 20 12 11 75 -15 100 -28 29 -51 31 -83 9z m76 -16 c7 -7
12 -21 12 -33 0 -29 -19 -45 -52 -45 -36 0 -56 36 -39 69 13 23 59 29 79 9z"/>
<path d="M9680 6210 c-50 -50 11 -138 70 -100 9 5 19 5 27 -2 10 -8 13 -1 13
36 0 53 -25 86 -65 86 -14 0 -34 -9 -45 -20z m78 -12 c7 -7 12 -21 12 -33 0
-12 -5 -26 -12 -33 -7 -7 -21 -12 -33 -12 -12 0 -26 5 -33 12 -7 7 -12 21 -12
33 0 12 5 26 12 33 7 7 21 12 33 12 12 0 26 -5 33 -12z"/>
<path d="M8664 5857 c-2 -7 -3 -69 -2 -138 l3 -124 133 -3 132 -3 0 141 0 140
-130 0 c-98 0 -132 -3 -136 -13z m79 -41 c6 -15 -11 -36 -29 -36 -14 0 -23 20
-16 38 6 16 39 15 45 -2z m-3 -116 c0 -63 -2 -70 -20 -70 -18 0 -20 7 -20 70
0 63 2 70 20 70 18 0 20 -7 20 -70z m145 47 c8 -12 15 -43 15 -69 0 -44 -2
-48 -24 -48 -23 0 -25 5 -28 48 -2 34 -7 47 -18 47 -11 0 -16 -13 -18 -47 -3
-43 -5 -48 -28 -48 -23 0 -24 3 -24 63 0 35 2 66 5 68 2 3 27 6 55 6 41 1 53
-3 65 -20z"/>
<path d="M9144 5857 c-2 -7 -3 -69 -2 -138 l3 -124 130 0 130 0 0 135 0 135
-128 3 c-99 2 -129 0 -133 -11z m185 -42 c58 -29 66 -124 14 -165 -14 -11 -30
-20 -34 -20 -18 0 -8 52 12 69 17 14 20 23 14 49 -6 31 -8 32 -60 32 -48 0
-53 -2 -59 -24 -8 -32 2 -56 28 -66 21 -8 20 -8 -4 -18 -18 -8 -20 -11 -7 -11
15 -1 26 -31 11 -31 -17 0 -46 24 -59 50 -49 95 47 186 144 135z"/>
<path d="M9624 5857 c-2 -7 -3 -69 -2 -138 l3 -124 130 0 130 0 0 135 0 135
-128 3 c-99 2 -129 0 -133 -11z m219 -82 c-8 -49 -34 -95 -64 -110 -32 -17
-87 -19 -109 -5 -12 8 -11 10 8 10 26 0 27 3 6 35 -15 22 -30 95 -19 95 2 0
19 -9 37 -20 39 -23 48 -25 48 -7 0 24 24 37 61 35 34 -3 36 -5 32 -33z"/>
<path d="M10104 5857 c-2 -7 -3 -69 -2 -138 l3 -124 130 0 130 0 0 135 0 135
-128 3 c-99 2 -129 0 -133 -11z m232 -59 c8 -12 -57 -73 -88 -84 -11 -3 -36 7
-62 26 -84 57 -74 70 49 70 61 0 96 -4 101 -12z m-152 -78 c22 -17 45 -30 51
-30 6 0 29 13 51 30 21 16 43 30 47 30 4 0 7 -21 5 -47 l-3 -48 -100 0 -100 0
-3 48 c-2 26 1 47 5 47 4 0 26 -14 47 -30z"/>
<path d="M19095 90 c17 -19 19 -19 37 -4 24 23 24 24 -19 24 -36 0 -36 0 -18
-20z"/>
</g>
</svg>
